<svg version="1.1" viewBox="0 0 128 128" xmlns="http://www.w3.org/2000/svg">
<rect y=".00034205" width="128" height="128" fill="#ffffff" fill-rule="evenodd" style="paint-order:markers stroke fill"/>
<path d="m0 .00034205v128h67.093c6.4809-3.3883 13.364-7.9519 20.249-13.586.78822-.64508 1.948-.53244 2.5931.256.645.78848.52809 1.9522-.26026 2.5973-5.0086 4.0986-10.118 7.6892-15.152 10.733h53.476v-41.826c-5.8447 8.9061-13.061 17.788-21.338 26.066-.35967.36009-.83352.53759-1.3054.53759-.47207 0-.94511-.1775-1.3052-.53759-.72021-.72022-.72021-1.8902 0-2.6106 9.6406-9.6405 17.813-20.088 23.949-30.405v-39.22c-.7022.39339-1.594.32-2.1916-.27819-8.4619-8.4622-30.834-1.3237-53.194 16.973-.34262.28074-.75792.41472-1.1686.41472-.53419 0-1.0641-.22955-1.4287-.67498-.64504-.78848-.5283-1.9521.26027-2.5972 11.348-9.2865 23.246-16.143 33.496-19.31 10.738-3.3173 19.089-2.5433 24.227 2.2092v-36.742zm118.05 45.64c.47205 0 .94531.18261 1.3054.54271 4.4535 4.4533 4.2703 12.786-.5161 23.464-4.5408 10.129-12.73 21.391-23.054 31.714-8.7707 8.7708-18.143 15.955-27.106 20.774-.27776.14933-.57823.22016-.87309.22016-.65698 0-1.2896-.35071-1.6226-.97016-.48248-.89715-.14678-2.018.74952-2.5003 8.6506-4.6513 17.727-11.61 26.246-20.13 10.014-10.014 17.929-20.887 22.291-30.616 4.0561-9.0484 4.5207-16.103 1.2743-19.35-.72022-.72021-.72022-1.8858 0-2.6062.36009-.3601.83336-.54272 1.3052-.54272zm-28.451 4.4273c.71305-.09042 1.4466.24321 1.8299.90393.51141.88098.20993 2.0113-.67029 2.5224-7.9638 4.6199-16.255 11.144-23.975 18.865-10.014 10.014-17.934 20.887-22.295 30.616-4.056 9.0484-4.5207 16.099-1.2743 19.345.72022.72021.72022 1.8902 0 2.6106-.3601.36011-.82882.5376-1.3009.5376-.4719 0-.94533-.17749-1.3052-.5376-4.4534-4.4534-4.2703-12.786.51592-23.464 4.5408-10.129 12.726-21.395 23.049-31.719 7.9432-7.9432 16.497-14.669 24.734-19.447.22144-.128.45474-.20396.69248-.23382zm13.974 4.9785c1.971.11176 3.6409.74833 4.9036 2.0108 6.7347 6.7345-4.3139 25.053-18.128 38.867-10.947 10.947-24.722 20.157-33.32 20.157-2.2524 0-4.1455-.63062-5.543-2.0284-6.7347-6.7344 4.3139-25.053 18.128-38.867 11.224-11.224 25.418-20.622 33.959-20.139zm-48.974 3.2852c.47207 0 .9451.18261 1.3052.54272.72021.72021.72021 1.8858 0 2.6061-14.906 14.906-26.257 31.5-31.961 46.725-.27726.7407-.97739 1.1994-1.7243 1.1994-.21453 0-.43596-.0427-.64818-.11862-.95368-.35754-1.4378-1.4185-1.0803-2.3724 5.8853-15.708 17.537-32.769 32.808-48.039.36012-.3601.82884-.54271 1.301-.54271zm48.335.40618c-2.3216 0-5.5841.96879-9.3087 2.831-6.6753 3.3376-14.278 9.101-21.405 16.228-7.1268 7.1267-12.89 14.729-16.228 21.405-2.9084 5.8165-3.6366 10.509-1.9006 12.246 1.736 1.7358 6.4292 1.0034 12.246-1.905 6.6753-3.3376 14.278-9.1007 21.405-16.228 7.1269-7.127 12.886-14.725 16.223-21.4 2.9084-5.8169 3.6411-10.51 1.9049-12.246-.62447-.62464-1.633-.93038-2.9369-.93038zm-39.154 1.4684c.4719.01705.93922.21078 1.2876.58198.69717.74325.65954 1.9094-.08365 2.6061-1.223 1.1468-2.4497 2.3305-3.6425 3.5233-.3601.3601-.8288.54272-1.3007.54272-.47232 0-.94506-.18176-1.3052-.54272-.72017-.72021-.72017-1.8858 0-2.6061 1.2201-1.2206 2.4743-2.4333 3.726-3.6072.37162-.34816.84667-.5137 1.3185-.49835zm29.805 8.568c.85346.0683 1.6017.37547 2.2004.97459 1.696 1.6957 1.2357 4.6624-1.4065 9.0663-2.13 3.5494-5.4904 7.6952-9.4677 11.672-3.977 3.9776-8.1229 7.3378-11.672 9.4676-2.6759 1.6054-4.8219 2.4077-6.4735 2.4077-1.0665 0-1.9274-.3362-2.5928-1.001-4.7914-4.7918 9.2605-19.116 10.879-20.734 1.4156-1.4158 12.56-12.352 18.534-11.853zm-.494 3.6689c-.63897.02562-2.2887.46422-5.2651 2.368-3.1188 1.9945-6.7326 4.9863-10.169 8.4225-3.4363 3.4364-6.4236 7.0454-8.4181 10.164-1.9033 2.976-2.3476 4.6307-2.3724 5.2696.63872-.02562 2.2932-.46507 5.2696-2.3681 3.1187-1.9947 6.7284-4.9862 10.164-8.4224 3.4363-3.4363 6.4281-7.0457 8.4226-10.164 1.9033-2.976 2.3431-4.6306 2.3679-5.2695zm6.8306 31.207c.47207 0 .94512.18176 1.3055.54271.72018.72022.72018 1.8902 0 2.6106-1.2199 1.2198-2.4736 2.4325-3.7262 3.6071-.35584.33365-.80896.49834-1.2612.49834-.49178 0-.9821-.19541-1.3449-.58197-.69718-.74325-.66381-1.9094.07936-2.6061 1.2237-1.1475 2.4503-2.3356 3.6424-3.5278.3601-.36011.83311-.54272 1.3052-.54272zm-80.913 11.712c.23552-.0427.48315-.0427.73215.009.99634.21335 1.6276 1.1956 1.4154 2.1916-.34296 1.601-.60014 3.1682-.76723 4.6655-.10611.94235-.90356 1.6404-1.8301 1.6404-.06739 0-.13772-.002-.2077-.009-1.0121-.11349-1.74-1.0292-1.6272-2.0417.18066-1.618.4608-3.3072.8291-5.027.16034-.74667.75366-1.2934 1.4594-1.4287z" fill="#884499" stroke-width="42.666" style="paint-order:stroke fill markers"/>
</svg>
